# xmcd
#
# Track frame offsets: 
#        150
#        26914
#        66407
#        87874
#        115199
#        131234
#        162709
#        188559
#        213407
#        248622
#
# Disc length: 3596 seconds
#
# Revision: 0
# Processed by: cddbd v1.5.2PL0 Copyright (c) Steve Scherf et al.
# Submitted via: ExactAudioCopy v1.3
#
DISCID=900e0a0a
DTITLE=Jimmy Dawkins - Come Back Baby
DYEAR=1995
DGENRE=Chicago Blues
TTITLE0=Come Back Baby
TTITLE1=I Got Wise
TTITLE2=Big Duke's
TTITLE3=Cross Road Blues
TTITLE4=J.D.'s Jam
TTITLE5=Hard Road To Travel
TTITLE6=Nature Ball
TTITLE7=Blue Shadows Falling
TTITLE8=Ode To Billy Joe
TTITLE9=Pretty Woman
EXTD=
EXTT0=
EXTT1=
EXTT2=
EXTT3=
EXTT4=
EXTT5=
EXTT6=
EXTT7=
EXTT8=
EXTT9=
PLAYORDER=
